<?xml version="1.0" standalone="no"?>
<!DOCTYPE svg PUBLIC "-//W3C//DTD SVG 20010904//EN"
 "http://www.w3.org/TR/2001/REC-SVG-20010904/DTD/svg10.dtd">
<svg version="1.0" xmlns="http://www.w3.org/2000/svg"
 width="107.000000pt" height="107.000000pt" viewBox="0 0 107.000000 107.000000"
 preserveAspectRatio="xMidYMid meet">
<metadata>
Created by potrace 1.11, written by Peter Selinger 2001-2013
</metadata>
<g transform="translate(0.000000,107.000000) scale(0.100000,-0.100000)"
fill="#000000" stroke="none">
<path d="M489 961 c-58 -18 -129 -62 -164 -100 -18 -21 -20 -21 -26 -4 -4 10
-8 39 -8 66 l-1 47 -40 0 -40 0 0 -430 0 -430 50 0 50 0 0 314 0 313 40 46
c109 124 293 143 355 37 19 -33 20 -54 23 -372 l3 -338 50 0 49 0 0 344 c0
284 -3 351 -15 387 -42 118 -177 168 -326 120z"/>
</g>
</svg>
